<?xml version="1.0" encoding="UTF-8"?>
<svg width="205px" height="202px" viewBox="0 0 205 202" version="1.1" xmlns="http://www.w3.org/2000/svg" xmlns:xlink="http://www.w3.org/1999/xlink">
    <!-- Generator: Sketch 49 (51002) - http://www.bohemiancoding.com/sketch -->
    <title>Bulbasaur</title>
    <desc>Created with Sketch.</desc>
    <defs></defs>
    <g id="Page-1" stroke="none" stroke-width="1" fill="none" fill-rule="evenodd">
        <g id="pokemon" transform="translate(-698.000000, -699.000000)">
            <g id="Bulbasaur" transform="translate(680.000000, 692.000000)">
                <path d="M8.98840502,65.3306425 C12.8735085,34.976923 35.7439274,14.1906693 35.7439274,14.1906693 C37.6810529,12.2304833 41.0117289,12.0245035 43.1573972,13.7550033 C43.1573972,13.7550033 64.6348152,30.1171852 70.9266142,42.9122592 C72.0759482,45.249558 72.7555907,47.4984331 72.7555907,49.5485864" id="Triangle-4-Copy-5" stroke="#000000" stroke-width="4" fill="#7EC9AB" transform="translate(40.871998, 39.240522) rotate(-30.000000) translate(-40.871998, -39.240522) "></path>
                <path d="M168.023089,65.7346725 C171.908192,35.380953 194.778611,14.5946993 194.778611,14.5946993 C196.715737,12.6345134 200.046413,12.4285335 202.192081,14.1590333 C202.192081,14.1590333 223.669499,30.5212152 229.961298,43.3162892 C231.110632,45.653588 231.790275,47.9024632 231.790275,49.9526164" id="Triangle-4-Copy-6" stroke="#000000" stroke-width="4" fill="#7EC9AB" transform="translate(199.906682, 39.644552) scale(-1, 1) rotate(-30.000000) translate(-199.906682, -39.644552) "></path>
                <path d="M205.550271,158.489458 C214.596669,143.591825 219.805705,126.105882 219.805705,107.403304 C219.805705,52.9675273 175.676789,8.83861159 121.241013,8.83861159 C66.805237,8.83861159 22.6763213,52.9675273 22.6763213,107.403304 C22.6763213,161.83908 66.805237,205.967995 121.241013,205.967995 C150.937057,205.967995 177.565812,192.835368 195.63639,172.061001" id="Oval-7" fill="#7EC9AB"></path>
                <path d="M217.691071,87.4243762 C222.685383,110.445963 219.46343,135.32731 206.757019,157.33546 C179.631989,204.317389 119.556428,220.414587 72.5744986,193.289558 C41.3155792,175.242212 23.728597,142.608449 23.4473129,108.949649 C29.114616,135.073429 45.361683,158.802467 70.335463,173.221086 C117.317393,200.346116 177.392953,184.248918 204.517983,137.266988 C213.595667,121.543978 217.832555,104.354509 217.691071,87.4243762 L217.691071,87.4243762 Z" id="Combined-Shape" fill="#56B7A1"></path>
                <path d="M41.4546639,128.341786 C48.3827377,133.607264 74.4688791,131.550709 84.1129939,123.239447 C77.5305333,91.8045273 52.0123893,73.2599789 52.0123893,73.2599789 C40.6438747,79.7684847 32.98374,92.0178655 32.98374,106.056367 C32.98374,113.928734 34.5265901,123.076308 41.4546639,128.341786 Z" id="Oval-29" stroke="#000000" stroke-width="2" fill="#FFFFFF"></path>
                <path d="M59.5592895,131.187145 C69.3509216,131.187145 79.2261939,107.621975 76.3097996,102.492997 C68.5752137,88.8904051 59.0868025,79.6747816 59.0868025,79.6747816 C49.1741375,85.8270916 46.3122988,104.131785 46.3122988,108.705615 C46.3122988,114.862207 49.7676573,131.187145 59.5592895,131.187145 Z" id="Oval-29-Copy" stroke="#000000" stroke-width="2" fill="#BF3D59"></path>
                <path d="M66.0681161,105.004146 C69.5052922,105.004146 71.6916622,97.6414359 71.6916622,95.4772806 L65.3941692,87.4771082 C61.9145067,89.6367658 61.4179987,95.5068492 61.4179987,97.1124098 C61.4179987,99.2735705 62.6309401,105.004146 66.0681161,105.004146 Z" id="Oval-29-Copy-2" stroke="#000000" stroke-width="2" fill="#FFFFFF"></path>
                <path d="M166.839956,128.341786 C173.76803,133.607264 199.854172,131.550709 209.498286,123.239447 C202.915826,91.8045273 177.397682,73.2599789 177.397682,73.2599789 C166.029167,79.7684847 158.369033,92.0178655 158.369033,106.056367 C158.369033,113.928734 159.911883,123.076308 166.839956,128.341786 Z" id="Oval-29" stroke="#000000" stroke-width="2" fill="#FFFFFF" transform="translate(183.933659, 102.246677) scale(-1, 1) translate(-183.933659, -102.246677) "></path>
                <path d="M178.8996,131.187145 C188.691232,131.187145 198.566504,107.621975 195.65011,102.492997 C187.915524,88.8904051 178.427113,79.6747816 178.427113,79.6747816 C168.514448,85.8270916 165.652609,104.131785 165.652609,108.705615 C165.652609,114.862207 169.107967,131.187145 178.8996,131.187145 Z" id="Oval-29-Copy" stroke="#000000" stroke-width="2" fill="#BF3D59" transform="translate(180.911168, 105.430963) scale(-1, 1) translate(-180.911168, -105.430963) "></path>
                <path d="M175.440482,105.004146 C178.877658,105.004146 181.064028,97.6414359 181.064028,95.4772806 L174.766535,87.4771082 C171.286872,89.6367658 170.790364,95.5068492 170.790364,97.1124098 C170.790364,99.2735705 172.003306,105.004146 175.440482,105.004146 Z" id="Oval-29-Copy-2" stroke="#000000" stroke-width="2" fill="#FFFFFF" transform="translate(175.927196, 96.240627) scale(-1, 1) translate(-175.927196, -96.240627) "></path>
                <g id="Group-11" transform="translate(101.270389, 133.816064)" fill="#000000">
                    <path d="M0.763256195,4.53499167 C0.42997389,2.91186704 1.49116608,1.46046026 3.13851791,1.29267233 L14.0449903,0.181814063 C14.0449903,0.181814063 5.75187838,7.65129559 2.22392116,7.65129559 C1.140027,7.65129559 0.763256195,4.53499167 0.763256195,4.53499167 Z" id="Triangle-5" transform="translate(7.453405, 3.916555) scale(1, -1) translate(-7.453405, -3.916555) "></path>
                    <path d="M25.7976933,4.53499167 C25.464411,2.91186704 26.5256032,1.46046026 28.1729551,1.29267233 L39.0794275,0.181814063 C39.0794275,0.181814063 30.7863155,7.65129559 27.2583583,7.65129559 C26.1744641,7.65129559 25.7976933,4.53499167 25.7976933,4.53499167 Z" id="Triangle-5" transform="translate(32.487842, 3.916555) scale(-1, -1) translate(-32.487842, -3.916555) "></path>
                </g>
                <circle id="Oval-29" stroke="#000000" stroke-width="2" fill="#0D6258" cx="120.5968" cy="41.0492952" r="20.6148375"></circle>
                <circle id="Oval-29-Copy-3" stroke="#000000" stroke-width="2" fill="#0D6258" cx="93.5398253" cy="68.1062695" r="9.01899142"></circle>
                <circle id="Oval-29-Copy-4" stroke="#000000" stroke-width="2" fill="#0D6258" cx="150.230628" cy="73.2599789" r="11.5958461"></circle>
                <g id="Group-12" transform="translate(49.733296, 141.546628)" stroke="#000000" stroke-width="2">
                    <polygon id="Triangle-10-Copy" fill="#FFFFFF" transform="translate(109.516324, 16.749555) scale(1, -1) translate(-109.516324, -16.749555) " points="109.516324 11.5958461 117.246888 21.9032649 101.78576 21.9032649"></polygon>
                    <polygon id="Triangle-10" fill="#FFFFFF" transform="translate(34.787538, 16.749555) scale(1, -1) translate(-34.787538, -16.749555) " points="34.7875383 11.5958461 42.5181024 21.9032649 27.0569743 21.9032649"></polygon>
                    <g id="Group-7" transform="translate(72.151931, -0.000000)" stroke-linecap="round">
                        <path d="M0.495548979,0 C0.495548979,0 10.8282307,4.23561613 21.9348174,4.83229839 C38.9866176,5.74837702 50.297773,1.5671374 71.9070605,16.6162988" id="Line" transform="translate(36.201305, 8.308149) scale(1, -1) translate(-36.201305, -8.308149) "></path>
                    </g>
                    <g id="Group-7-Copy-3" transform="translate(36.159713, 8.754864) scale(-1, 1) translate(-36.159713, -8.754864) translate(0.167496, -0.000000)" stroke-linecap="round">
                        <path d="M0.495548979,0 C0.495548979,0 10.8282307,4.23561613 21.9348174,4.83229839 C38.9866176,5.74837702 50.297773,1.5671374 71.9070605,16.6162988" id="Line" transform="translate(36.201305, 8.308149) scale(1, -1) translate(-36.201305, -8.308149) "></path>
                    </g>
                </g>
                <path d="M204.035312,159.182553 C213.069867,144.304424 218.272084,126.841373 218.272084,108.163279 C218.272084,53.7987694 174.200941,9.72762646 119.836431,9.72762646 C110.570273,9.72762646 101.603153,11.0079589 93.1023272,13.401367 M72.9906556,21.5678481 C65.0310206,25.8828883 57.7331814,31.2633518 51.288422,37.5179544 M39.6189155,51.099647 C28.1479595,67.1960315 21.4007782,86.8917111 21.4007782,108.163279 C21.4007782,162.527789 65.4719212,206.598932 119.836431,206.598932 C149.493598,206.598932 176.08749,193.483498 194.134411,172.736329" id="Oval-7" stroke="#000000" stroke-width="4" stroke-linecap="round"></path>
            </g>
        </g>
    </g>
</svg>
