<?xml version="1.0" encoding="UTF-8"?>
<svg width="202px" height="202px" viewBox="0 0 202 202" version="1.1" xmlns="http://www.w3.org/2000/svg" xmlns:xlink="http://www.w3.org/1999/xlink">
    <!-- Generator: Sketch 49 (51002) - http://www.bohemiancoding.com/sketch -->
    <title>Charmander</title>
    <desc>Created with Sketch.</desc>
    <defs></defs>
    <g id="Page-1" stroke="none" stroke-width="1" fill="none" fill-rule="evenodd">
        <g id="pokemon" transform="translate(-1124.000000, -316.000000)">
            <g id="Charmander" transform="translate(1126.000000, 318.000000)">
                <path d="M181.355753,148.254641 C190.295723,133.532275 195.443477,116.252049 195.443477,97.7695003 C195.443477,43.974145 151.833725,0.364393022 98.0383694,0.364393022 C44.243014,0.364393022 0.63326204,43.974145 0.63326204,97.7695003 C0.63326204,151.564856 44.243014,195.174608 98.0383694,195.174608 C127.385048,195.174608 153.700523,182.196482 171.558506,161.666519" id="Oval-7" fill="#F79D41"></path>
                <path d="M170.418971,34.6163827 C186.489985,51.7883771 196.328928,74.8652519 196.328928,100.240135 C196.328928,153.291735 153.322108,196.298555 100.270508,196.298555 C61.8828427,196.298555 28.7544648,173.78087 13.3733968,141.233523 C30.9022516,159.963237 55.8451367,171.668191 83.5218601,171.668191 C136.573461,171.668191 179.58028,128.661371 179.58028,75.6097707 C179.58028,60.9458352 176.294478,47.04934 170.418971,34.6163827 L170.418971,34.6163827 Z" id="Combined-Shape" fill="#DC6B00"></path>
                <path d="M183.267796,149.819319 C192.302351,134.94119 197.504568,117.47814 197.504568,98.8000459 C197.504568,44.435536 153.433425,0.364393022 99.0689149,0.364393022 C89.802757,0.364393022 80.8356368,1.64472547 72.334811,4.0381336 M52.2231394,12.2046146 C44.2635044,16.5196549 36.9656652,21.9001184 30.5209059,28.154721 M18.8513993,41.7364136 C7.3804433,57.8327981 0.63326204,77.5284777 0.63326204,98.8000459 C0.63326204,153.164556 44.704405,197.235699 99.0689149,197.235699 C128.726081,197.235699 155.319974,184.120265 173.366894,163.373095" id="Oval-7" stroke="#000000" stroke-width="4" stroke-linecap="round"></path>
                <path d="M34.8936021,97.2388203 C34.8936021,97.2388203 58.0533348,97.2388203 58.0533353,97.2388187 C61.9669333,91.6902135 65.0546293,80.7882727 65.0546293,69.6934215 C65.0546293,53.4629983 56.4019007,40.3056407 45.7282191,40.3056407 C35.0545375,40.3056407 26.401809,53.4629983 26.401809,69.6934215 C26.401809,85.9238446 31.7794832,92.4504596 34.8936021,97.2388203 Z" id="Oval-7-Copy-9" stroke="#000000" stroke-width="3" fill="#4F70F5"></path>
                <path d="M36.3598859,96.4717621 L45.7282191,96.4717621 C40.1947934,90.9395516 34.8457893,78.465235 34.8457893,68.3887014 C34.8457893,47.6952245 49.4689364,40.3056407 45.7282191,40.3056407 C35.0545375,40.3056407 26.401809,53.4629983 26.401809,69.6934215 C26.401809,85.9238446 32.0059646,94.3956829 36.3598859,96.4717621 Z" id="Oval-7-Copy-11" stroke="#000000" stroke-width="3" fill="#FFFFFF"></path>
                <path d="M48.5627593,58.6123991 C48.5627593,68.5102988 58.2803199,77.6574338 63.383639,59.8353249 C61.831179,53.3043469 58.8000752,47.8491615 54.9050373,44.4044973 C54.9050373,44.4044973 48.5627593,48.7144994 48.5627593,58.6123991 Z" id="Oval-7-Copy-10" stroke="#000000" stroke-width="3" fill="#FFFFFF"></path>
                <path d="M141.833072,97.2388203 C141.833072,97.2388203 164.992804,97.2388203 164.992805,97.2388187 C168.906403,91.6902135 171.994099,80.7882727 171.994099,69.6934215 C171.994099,53.4629983 163.34137,40.3056407 152.667689,40.3056407 C141.994007,40.3056407 133.341279,53.4629983 133.341279,69.6934215 C133.341279,85.9238446 138.718953,92.4504596 141.833072,97.2388203 Z" id="Oval-7-Copy-9" stroke="#000000" stroke-width="3" fill="#4F70F5" transform="translate(152.667689, 68.772231) scale(-1, 1) translate(-152.667689, -68.772231) "></path>
                <path d="M162.013523,96.4717621 L171.381857,96.4717621 C165.848431,90.9395516 160.499427,78.465235 160.499427,68.3887014 C160.499427,47.6952245 175.122574,40.3056407 171.381857,40.3056407 C160.708175,40.3056407 152.055446,53.4629983 152.055446,69.6934215 C152.055446,85.9238446 157.659602,94.3956829 162.013523,96.4717621 Z" id="Oval-7-Copy-11" stroke="#000000" stroke-width="3" fill="#FFFFFF" transform="translate(162.024773, 68.388701) scale(-1, 1) translate(-162.024773, -68.388701) "></path>
                <path d="M135.012269,58.6123991 C135.012269,68.5102988 144.72983,77.6574338 149.833149,59.8353249 C148.280689,53.3043469 145.249585,47.8491615 141.354547,44.4044973 C141.354547,44.4044973 135.012269,48.7144994 135.012269,58.6123991 Z" id="Oval-7-Copy-10" stroke="#000000" stroke-width="3" fill="#FFFFFF" transform="translate(142.422709, 57.184020) scale(-1, 1) translate(-142.422709, -57.184020) "></path>
                <g id="Group-8" transform="translate(79.227330, 96.996444)" fill="#000000">
                    <path d="M11.5375451,7.32386153e-14 L11.5375451,0.0029206111 C11.5375451,2.22678456 9.92360698,4.85475228 7.92575856,5.79701591 C7.92575856,5.79701591 4.08075034,8.05916465 0.552793124,8.05916465 C-2.97516409,8.05916465 11.5375451,7.32386153e-14 11.5375451,7.32386153e-14 Z" id="Triangle-5" transform="translate(5.768773, 4.029582) scale(1, -1) translate(-5.768773, -4.029582) "></path>
                    <path d="M38.5529572,0 L38.5529572,0.0029206111 C38.5529572,2.22678456 36.9390191,4.85475228 34.9411706,5.79701591 C34.9411706,5.79701591 31.0961624,8.05916465 27.5682052,8.05916465 C24.040248,8.05916465 38.5529572,0 38.5529572,0 Z" id="Triangle-5-Copy" transform="translate(32.784185, 4.029582) scale(-1, -1) translate(-32.784185, -4.029582) "></path>
                </g>
                <g id="Group-7" transform="translate(29.978664, 115.034427)" stroke="#000000" stroke-width="2">
                    <path d="M68.1176468,36.937399 C83.726544,36.9373985 146.255156,-0.121668259 134.678694,0.445755607 C124.915796,0.924287055 106.223311,-0.287048612 96.6108197,2.6230146 C89.3623741,4.8173921 68.1176457,7.76956938 68.1176457,7.76956938 C68.1176457,7.76956938 46.6007857,4.111129 41.2576414,2.6230146 C30.3707888,-0.409073078 12.4335467,0.854271756 1.34659865,0.445755608 C-9.21712808,0.0565183763 52.5087497,36.9373994 68.1176468,36.937399 Z" id="Oval-14" fill="#77393C"></path>
                    <path d="M67.7190432,13.7400725 C43.1518013,13.8665683 17.4682013,14.3353178 24.9663608,18.9034337 C36.3390947,25.832063 60.204522,36.6212445 67.7190444,36.6212449 C75.2335668,36.6212452 99.6305055,26.0563406 111.109811,18.9034338 C118.473178,14.3152232 92.5259808,13.6123426 67.7190432,13.7400725 Z" id="Oval-14-Copy-3" fill="#DF817F"></path>
                </g>
                <polygon id="Triangle-20" stroke="#000000" stroke-width="2" fill="#FFFFFF" transform="translate(52.189072, 120.698663) scale(1, -1) translate(-52.189072, -120.698663) " points="51.6875102 116.322854 58.6499249 125.074472 45.7282191 125.074472"></polygon>
                <polygon id="Triangle-20-Copy" stroke="#000000" stroke-width="2" fill="#FFFFFF" transform="translate(146.244268, 120.698663) scale(-1, -1) translate(-146.244268, -120.698663) " points="145.742706 116.322854 152.705121 125.074472 139.783415 125.074472"></polygon>
                <polygon id="Triangle-20-Copy-3" stroke="#000000" stroke-width="2" fill="#FFFFFF" transform="translate(120.475721, 140.669287) scale(-1, 1) translate(-120.475721, -140.669287) " points="122.551014 135.649264 126.936574 145.689309 114.014868 140.5356"></polygon>
                <polygon id="Triangle-20-Copy-4" stroke="#000000" stroke-width="2" fill="#FFFFFF" points="80.0329118 135.649264 84.4184718 145.689309 71.496766 140.5356"></polygon>
            </g>
        </g>
    </g>
</svg>
