<?xml version="1.0" encoding="utf-8"?>
<!-- Generator: Adobe Illustrator 22.0.1, SVG Export Plug-In . SVG Version: 6.00 Build 0)  -->
<svg version="1.1" id="Layer_1" xmlns="http://www.w3.org/2000/svg" xmlns:xlink="http://www.w3.org/1999/xlink" x="0px" y="0px"
	 viewBox="0 0 288 288" style="enable-background:new 0 0 288 288;" xml:space="preserve">
<style type="text/css">
	.st0{fill:#9234A5;}
	.st1{clip-path:url(#SVGID_2_);}
	.st2{fill:#FFFFFF;}
</style>
<g>
	<g>
		<rect class="st0" width="288" height="288"/>
	</g>
	<g>
		<defs>
			<rect id="SVGID_1_" width="288" height="288"/>
		</defs>
		<clipPath id="SVGID_2_">
			<use xlink:href="#SVGID_1_"  style="overflow:visible;"/>
		</clipPath>
		<g class="st1">
			<g>
				<g>
					<polygon class="st2" points="306.2,272.2 284.1,294.3 306.2,294.3 					"/>
				</g>
				<g>
					<polygon class="st2" points="306.2,195.4 207.3,294.3 240.2,294.3 306.2,228.3 					"/>
				</g>
				<g>
					<polygon class="st2" points="306.2,118.5 130.4,294.3 163.4,294.3 306.2,151.4 					"/>
				</g>
				<g>
					<polygon class="st2" points="306.2,41.6 53.5,294.3 86.5,294.3 306.2,74.6 					"/>
				</g>
				<g>
					<polygon class="st2" points="281.2,-10.2 -7.3,278.2 -7.3,294.3 9.6,294.3 306.2,-2.3 306.2,-10.2 					"/>
				</g>
				<g>
					<polygon class="st2" points="204.3,-10.2 -7.3,201.4 -7.3,234.3 237.3,-10.2 					"/>
				</g>
				<g>
					<polygon class="st2" points="127.4,-10.2 -7.3,124.5 -7.3,157.5 160.4,-10.2 					"/>
				</g>
				<g>
					<polygon class="st2" points="50.6,-10.2 -7.3,47.7 -7.3,80.6 83.5,-10.2 					"/>
				</g>
				<g>
					<polygon class="st2" points="-7.3,-10.2 -7.3,3.8 6.7,-10.2 					"/>
				</g>
			</g>
		</g>
	</g>
</g>
</svg>
