<?xml version="1.0" encoding="utf-8"?>
<!-- Generator: Adobe Illustrator 22.0.1, SVG Export Plug-In . SVG Version: 6.00 Build 0)  -->
<svg version="1.1" id="Layer_1" xmlns="http://www.w3.org/2000/svg" xmlns:xlink="http://www.w3.org/1999/xlink" x="0px" y="0px"
	 viewBox="0 0 288 288" style="enable-background:new 0 0 288 288;" xml:space="preserve">
<style type="text/css">
	.st0{clip-path:url(#SVGID_2_);}
	.st1{fill:#9234A5;}
</style>
<g>
	<g>
		<defs>
			<rect id="SVGID_1_" x="0" y="0" width="288" height="288"/>
		</defs>
		<clipPath id="SVGID_2_">
			<use xlink:href="#SVGID_1_"  style="overflow:visible;"/>
		</clipPath>
		<g class="st0">
			<g>
				<g>

						<rect x="247.8" y="280" transform="matrix(0.7071 -0.7071 0.7071 0.7071 -121.6672 276.5223)" class="st1" width="50.3" height="10.3"/>
				</g>
				<g>

						<rect x="207" y="263.1" transform="matrix(0.7071 -0.7071 0.7071 0.7071 -114.6601 259.6019)" class="st1" width="98.1" height="10.3"/>
				</g>
				<g>

						<rect x="166.1" y="246.2" transform="matrix(0.707 -0.7072 0.7072 0.707 -107.654 242.733)" class="st1" width="146" height="10.3"/>
				</g>
				<g>

						<rect x="125.3" y="229.2" transform="matrix(0.7071 -0.7071 0.7071 0.7071 -100.6453 225.7677)" class="st1" width="193.8" height="10.3"/>
				</g>
				<g>

						<rect x="84.4" y="212.3" transform="matrix(0.7071 -0.7071 0.7071 0.7071 -93.638 208.8499)" class="st1" width="241.7" height="10.3"/>
				</g>
				<g>

						<rect x="43.6" y="195.4" transform="matrix(0.7071 -0.7071 0.7071 0.7071 -86.6308 191.9329)" class="st1" width="289.5" height="10.3"/>
				</g>
				<g>

						<rect x="2.8" y="178.5" transform="matrix(0.7071 -0.7071 0.7071 0.7071 -79.6235 175.0159)" class="st1" width="337.4" height="10.3"/>
				</g>
				<g>

						<rect x="-38.1" y="161.6" transform="matrix(0.7071 -0.7071 0.7071 0.7071 -72.6155 158.0987)" class="st1" width="385.2" height="10.3"/>
				</g>
				<g>

						<rect x="-78.9" y="144.7" transform="matrix(0.7071 -0.7071 0.7071 0.7071 -65.6086 141.181)" class="st1" width="433.1" height="10.3"/>
				</g>
				<g>

						<rect x="-71.9" y="127.7" transform="matrix(0.7071 -0.7071 0.7071 0.7071 -58.6017 124.2633)" class="st1" width="385.2" height="10.3"/>
				</g>
				<g>

						<rect x="-64.9" y="110.8" transform="matrix(0.7071 -0.7071 0.7071 0.7071 -51.5944 107.3463)" class="st1" width="337.4" height="10.3"/>
				</g>
				<g>

						<rect x="-57.9" y="93.9" transform="matrix(0.7071 -0.7071 0.7071 0.7071 -44.5873 90.429)" class="st1" width="289.5" height="10.3"/>
				</g>
				<g>

						<rect x="-50.9" y="77" transform="matrix(0.7071 -0.7071 0.7071 0.7071 -37.5794 73.5117)" class="st1" width="241.7" height="10.3"/>
				</g>
				<g>

						<rect x="-43.9" y="60.1" transform="matrix(0.7071 -0.7071 0.7071 0.7071 -30.5723 56.5944)" class="st1" width="193.8" height="10.3"/>
				</g>
				<g>

						<rect x="-36.9" y="43.2" transform="matrix(0.7071 -0.7071 0.7071 0.7071 -23.5653 39.6767)" class="st1" width="146" height="10.3"/>
				</g>
				<g>

						<rect x="-29.9" y="26.2" transform="matrix(0.7072 -0.707 0.707 0.7072 -16.5565 22.7546)" class="st1" width="98.1" height="10.3"/>
				</g>
				<g>

						<rect x="-22.9" y="9.3" transform="matrix(0.7072 -0.707 0.707 0.7072 -9.5493 5.8409)" class="st1" width="50.3" height="10.3"/>
				</g>
			</g>
		</g>
	</g>
</g>
</svg>
