<?xml version="1.0" encoding="UTF-8"?>
<svg width="214px" height="218px" viewBox="0 0 214 218" version="1.1" xmlns="http://www.w3.org/2000/svg" xmlns:xlink="http://www.w3.org/1999/xlink">
    <!-- Generator: Sketch 49 (51002) - http://www.bohemiancoding.com/sketch -->
    <title>Jigglypuff</title>
    <desc>Created with Sketch.</desc>
    <defs></defs>
    <g id="Page-1" stroke="none" stroke-width="1" fill="none" fill-rule="evenodd">
        <g id="pokemon" transform="translate(-1121.000000, -681.000000)">
            <g id="Jigglypuff" transform="translate(1105.000000, 683.000000)">
                <path d="M10.9263573,75.9964197 C14.8114607,45.6427002 29.8523577,20.519827 29.8523577,20.519827 C31.1836464,18.1083747 34.0759891,17.4771354 36.2920444,19.1246437 C36.2920444,19.1246437 66.5727674,40.7829623 72.8645664,53.5780364 C74.0139004,55.9153351 74.6935429,58.1642103 74.6935429,60.2143635" id="Triangle-4-Copy-7" stroke="#000000" stroke-width="4" fill="#FCDDE2" transform="translate(42.809950, 47.399232) rotate(-30.000000) translate(-42.809950, -47.399232) "></path>
                <path d="M26.8728231,71.3774167 C29.0882408,54.0686965 36.6771046,41.6552259 36.6771046,41.6552259 C37.981889,39.2239205 40.8510074,38.5838975 43.0488899,40.2433144 C43.0488899,40.2433144 58.6042933,51.2975091 62.1920905,58.5936943 C62.8474798,59.9265013 63.2350349,61.2088862 63.2350349,62.3779531" id="Triangle-4-Copy-9" stroke="#000000" stroke-width="2" fill="#3C1E1C" transform="translate(45.053929, 55.648967) rotate(-30.000000) translate(-45.053929, -55.648967) "></path>
                <path d="M170.62156,75.9964197 C174.506663,45.6427002 189.54756,20.519827 189.54756,20.519827 C190.878849,18.1083747 193.771192,17.4771354 195.987247,19.1246437 C195.987247,19.1246437 226.26797,40.7829623 232.559769,53.5780364 C233.709103,55.9153351 234.388746,58.1642103 234.388746,60.2143635" id="Triangle-4-Copy-6" stroke="#000000" stroke-width="4" fill="#FCDDE2" transform="translate(202.505153, 47.399232) scale(-1, 1) rotate(-30.000000) translate(-202.505153, -47.399232) "></path>
                <path d="M181.369687,71.1125785 C183.585105,53.8038582 191.173969,41.3903877 191.173969,41.3903877 C192.478753,38.9590823 195.347871,38.3190593 197.545754,39.9784762 C197.545754,39.9784762 213.101157,51.0326709 216.688954,58.328856 C217.344344,59.6616631 217.731899,60.9440479 217.731899,62.1131149" id="Triangle-4-Copy-8" stroke="#000000" stroke-width="2" fill="#3C1E1C" transform="translate(199.550793, 55.384128) scale(-1, 1) rotate(-30.000000) translate(-199.550793, -55.384128) "></path>
                <path d="M205.387964,164.077869 C214.327934,149.355503 219.475687,132.075277 219.475687,113.592728 C219.475687,59.7973728 175.865935,16.1876208 122.07058,16.1876208 C68.2752247,16.1876208 24.6654727,59.7973728 24.6654727,113.592728 C24.6654727,167.388083 68.2752247,210.997835 122.07058,210.997835 C151.417259,210.997835 177.732734,198.01971 195.590717,177.489747" id="Oval-7" fill="#FCDDE2"></path>
                <path d="M194.451182,50.4396105 C210.522196,67.6116049 220.361139,90.6884796 220.361139,116.063363 C220.361139,169.114963 177.354319,212.121783 124.302718,212.121783 C85.9150534,212.121783 52.7866755,189.604098 37.4056074,157.056751 C54.9344623,175.786465 79.8773473,187.491419 107.554071,187.491419 C160.605671,187.491419 203.612491,144.484599 203.612491,91.4329985 C203.612491,76.769063 200.326689,62.8725677 194.451182,50.4396105 L194.451182,50.4396105 Z" id="Combined-Shape" fill="#E8A8CD"></path>
                <circle id="Oval-62" stroke="#000000" stroke-width="2" fill="#FFFFFF" cx="77.4909939" cy="110.242817" r="27.0569743"></circle>
                <circle id="Oval-62-Copy" stroke="#000000" stroke-width="2" fill="#FFFFFF" cx="168.969335" cy="110.242817" r="27.0569743"></circle>
                <circle id="Oval-62-Copy-3" stroke="#000000" stroke-width="2" fill="#539D90" cx="77.4909939" cy="110.242817" r="19.3264102"></circle>
                <circle id="Oval-62-Copy-4" stroke="#000000" stroke-width="2" fill="#539D90" cx="168.969335" cy="110.242817" r="19.3264102"></circle>
                <circle id="Oval-62-Copy-6" fill="#276E68" cx="80.0678486" cy="106.377535" r="12.8842735"></circle>
                <circle id="Oval-62-Copy-7" fill="#276E68" cx="171.54619" cy="106.377535" r="12.8842735"></circle>
                <path d="M109.701678,157.914629 C121.911665,155.181462 134.025485,143.067642 136.758652,130.857655" id="Oval-62-Copy-2" stroke="#000000" stroke-width="2" stroke-linecap="round" transform="translate(123.230165, 144.386142) rotate(-315.000000) translate(-123.230165, -144.386142) "></path>
                <circle id="Oval-62-Copy-5" fill="#FFFFFF" cx="82.6447033" cy="102.512253" r="7.73056407"></circle>
                <path d="M174.123045,110.242817 C178.392517,110.242817 181.853609,106.781726 181.853609,102.512253 C181.853609,98.2427803 178.392517,94.7816889 174.123045,94.7816889 C169.853572,94.7816889 166.392481,98.2427803 166.392481,102.512253 C166.392481,106.781726 169.853572,110.242817 174.123045,110.242817 Z" id="Oval-62-Copy-8" fill="#FFFFFF"></path>
                <path d="M205.387964,166.654723 C214.327934,151.932357 219.475687,134.652131 219.475687,116.169583 C219.475687,62.3742275 175.865935,18.7644755 122.07058,18.7644755 C68.2752247,18.7644755 24.6654727,62.3742275 24.6654727,116.169583 C24.6654727,169.964938 68.2752247,213.57469 122.07058,213.57469 C151.417259,213.57469 177.732734,200.596565 195.590717,180.066602" id="Oval-7-Copy-12" stroke="#000000" stroke-width="4" stroke-linecap="round"></path>
                <g id="Group-17" transform="translate(82.644703, 0.726493)" fill="#FCDDE2" stroke="#000000" stroke-linecap="round" stroke-width="4">
                    <path d="M78.0190743,28.3256836 C78.0190743,13.2765654 65.1331473,1.13686838e-13 43.2009248,1.13686838e-13 C21.2687023,1.13686838e-13 0.159795186,19.0212403 0.159795188,41.1211282 C0.15979519,63.221016 8.35378595,77.7787352 25.7773545,81.5131613 C43.2009231,85.2475874 59.509238,70.863504 50.0473497,51.1935971" id="Oval-64"></path>
                    <path d="M42.6122957,33.352537 C60.6293989,40.6688853 58.738988,55.8956015 69.7894076,59.9999966" id="Oval-64-Copy" transform="translate(56.200852, 46.676267) scale(-1, -1) rotate(-79.000000) translate(-56.200852, -46.676267) "></path>
                </g>
                <path d="M113.434767,80.9217368 C127.25768,80.9217368 138.585602,70.9863609 131.501217,53.9697461 C131.501217,53.9697461 128.951021,68.5928932 113.218744,70.1260462 C97.4864678,71.6591993 89.8625387,66.5287672 89.8625387,66.5287672 C92.902422,71.5899967 99.6118539,80.9217368 113.434767,80.9217368 Z" id="Oval-75" fill="#E8A8CD"></path>
            </g>
        </g>
    </g>
</svg>
