<?xml version="1.0" encoding="UTF-8"?>
<svg width="202px" height="237px" viewBox="0 0 202 237" version="1.1" xmlns="http://www.w3.org/2000/svg" xmlns:xlink="http://www.w3.org/1999/xlink">
    <!-- Generator: Sketch 49 (51002) - http://www.bohemiancoding.com/sketch -->
    <title>Pikachu</title>
    <desc>Created with Sketch.</desc>
    <defs></defs>
    <g id="Page-1" stroke="none" stroke-width="1" fill="none" fill-rule="evenodd">
        <g id="pokemon" transform="translate(-699.000000, -281.000000)">
            <g id="Pikachu" transform="translate(684.000000, 281.000000)">
                <polyline id="Triangle-4-Copy-2" stroke="#000000" stroke-width="4" fill="#FFE100" transform="translate(198.362985, 43.755152) scale(-1, 1) rotate(-22.000000) translate(-198.362985, -43.755152) " points="178.043337 82.7369322 199.754708 4.77337109 199.754708 4.77337109 218.682632 64.0243081"></polyline>
                <polygon id="Triangle-4-Copy-3" stroke="#000000" stroke-width="4" fill="#000000" transform="translate(202.996838, 25.970630) scale(-1, 1) rotate(-22.000000) translate(-202.996838, -25.970630) " points="202.591598 7.71334078 211.790563 37.1034942 194.203114 44.22792"></polygon>
                <polyline id="Triangle-4" stroke="#000000" stroke-width="4" fill="#FFE100" stroke-linecap="round" transform="translate(33.442882, 43.884453) rotate(-22.000000) translate(-33.442882, -43.884453) " points="13.1232336 82.8662335 34.834605 4.90267246 34.834605 4.90267246 53.7625295 64.1536094"></polyline>
                <polygon id="Triangle-4-Copy" stroke="#000000" stroke-width="4" fill="#000000" transform="translate(28.809028, 27.130215) rotate(-22.000000) translate(-28.809028, -27.130215) " points="28.4037876 8.87292539 37.6027524 38.2630788 20.0153032 45.3875046"></polygon>
                <path d="M198.48634,185.219004 C207.42631,170.496637 212.574064,153.216411 212.574064,134.733863 C212.574064,80.9385077 168.964312,37.3287557 115.168957,37.3287557 C61.3736014,37.3287557 17.7638494,80.9385077 17.7638494,134.733863 C17.7638494,188.529218 61.3736014,232.13897 115.168957,232.13897 C144.515635,232.13897 170.831111,219.160845 188.689094,198.630882" id="Oval-7" fill="#FFE100"></path>
                <path d="M187.823692,71.6163827 C203.894706,88.7883771 213.733649,111.865252 213.733649,137.240135 C213.733649,190.291735 170.726829,233.298555 117.675229,233.298555 C79.2875635,233.298555 46.1591856,210.78087 30.7781176,178.233523 C48.3069724,196.963237 73.2498575,208.668191 100.926581,208.668191 C153.978181,208.668191 196.985001,165.661371 196.985001,112.609771 C196.985001,97.9458352 193.699199,84.04934 187.823692,71.6163827 L187.823692,71.6163827 Z" id="Combined-Shape" fill="#FEAD23"></path>
                <path d="M200.398384,186.783682 C209.432938,171.905553 214.635155,154.442502 214.635155,135.764409 C214.635155,81.3998986 170.564012,37.3287557 116.199502,37.3287557 C106.933344,37.3287557 97.9662241,38.6090881 89.4653983,41.0024962 M69.3537267,49.1689773 C61.3940918,53.4840175 54.0962525,58.864481 47.6514932,65.1190837 M35.9819866,78.7007763 C24.5110306,94.7971607 17.7638494,114.49284 17.7638494,135.764409 C17.7638494,190.128918 61.8349923,234.200061 116.199502,234.200061 C145.856669,234.200061 172.450562,221.084627 190.497482,200.337458" id="Oval-7" stroke="#000000" stroke-width="4" stroke-linecap="round"></path>
                <circle id="Oval-7-Copy-2" stroke="#000000" stroke-width="2" fill="#333333" cx="159.422427" cy="79.3091606" r="12.3739893"></circle>
                <circle id="Oval-7-Copy-6" stroke="#000000" stroke-width="2" fill="#E74A39" cx="176.677899" cy="120.177382" r="15.5526288"></circle>
                <circle id="Oval-7-Copy-7" stroke="#000000" stroke-width="2" fill="#E74A39" cx="56.3436903" cy="120.177382" r="15.5526288"></circle>
                <circle id="Oval-7-Copy-4" stroke="#000000" stroke-width="2" fill="#333333" cx="72.009842" cy="79.3091606" r="12.3739893"></circle>
                <circle id="Oval-7-Copy-3" stroke="#000000" stroke-width="2" fill="#FFFFFF" cx="156.016742" cy="73.8600644" r="5.10852771"></circle>
                <circle id="Oval-7-Copy-5" stroke="#000000" stroke-width="2" fill="#FFFFFF" cx="68.6041568" cy="73.8600644" r="5.10852771"></circle>
                <path d="M114.375065,79.1956378 L117.682168,81.9041167 C118.875783,82.881673 118.652164,84.0859778 117.167989,84.4724213 C117.167989,84.4724213 117.109232,84.7972803 114.375065,84.7972803 C111.640898,84.7972803 111.582141,84.4724213 111.582141,84.4724213 C110.104553,84.0315421 109.88436,82.8734727 111.067962,81.9041167 L114.375065,79.1956378 Z" id="Triangle-5" fill="#000000" transform="translate(114.377075, 81.996459) scale(1, -1) translate(-114.377075, -81.996459) "></path>
                <path d="M114.417916,92.1793689 C129.355037,92.1793689 137.640631,140.441163 137.640631,140.441163 C132.58157,140.66821 122.165958,143.129042 114.417916,148.89866 C106.684148,143.129042 96.2542623,140.66821 91.1952016,140.668209 C91.1952016,140.668209 99.4807955,92.1793689 114.417916,92.1793689 Z" id="Triangle-6-Copy-2" stroke="#000000" stroke-width="2" fill="#DD666A" transform="translate(114.417916, 120.539015) scale(1, -1) translate(-114.417916, -120.539015) "></path>
                <path d="M93.0838871,92.1793689 C93.0838871,92.1793689 101.268535,98.4029262 114.417916,98.4029258 C127.567298,98.4029254 135.812781,92.1793689 135.812781,92.1793689 L137.640631,101.122994 C132.58157,101.35004 122.165958,103.810872 114.417916,109.580491 C106.684148,103.810872 96.2542623,101.35004 91.1952016,101.35004 L93.0838871,92.1793689 Z" id="Triangle-6-Copy-3" stroke="#000000" stroke-width="2" fill="#7F2728" transform="translate(114.417916, 100.879930) scale(1, -1) translate(-114.417916, -100.879930) "></path>
                <path d="M85.7461054,98.7313218 C94.8279324,105.098357 114.467383,92.364287 114.467383,92.364287 C114.467383,92.364287 134.106834,105.098357 143.188661,98.7313218" id="Line" stroke="#000000" stroke-width="2" stroke-linecap="round"></path>
            </g>
        </g>
    </g>
</svg>
