<?xml version="1.0" encoding="UTF-8"?>
<svg width="199px" height="200px" viewBox="0 0 199 200" version="1.1" xmlns="http://www.w3.org/2000/svg" xmlns:xlink="http://www.w3.org/1999/xlink">
    <!-- Generator: Sketch 49 (51002) - http://www.bohemiancoding.com/sketch -->
    <title>Poké Ball</title>
    <desc>Created with Sketch.</desc>
    <defs></defs>
    <g id="Page-1" stroke="none" stroke-width="1" fill="none" fill-rule="evenodd">
        <g id="pokemon" transform="translate(-251.000000, -317.000000)">
            <g id="Poké-Ball" transform="translate(253.000000, 319.000000)">
                <path d="M194.810215,98.4051073 C194.810215,44.609752 151.200463,1 97.4051073,1 C43.609752,1 0,44.609752 0,98.4051073" id="Oval-7-Copy-13" fill="#E61D1C"></path>
                <path d="M194.810215,195.626897 C194.810215,141.831542 151.200463,98.2217899 97.4051073,98.2217899 C43.609752,98.2217899 0,141.831542 0,195.626897" id="Oval-7-Copy-14" fill="#FAFAFC" transform="translate(97.405107, 146.924344) scale(1, -1) translate(-97.405107, -146.924344) "></path>
                <path d="M97.4143895,195.701627 C58.5648048,195.701627 25.0377924,172.912987 9.47164364,139.973997 C27.2114236,158.929086 52.454447,170.774886 80.4642051,170.774886 C125.934127,170.774886 164.049915,141.057866 174.674586,98.8863585 L194.627881,98.8863585 C194.41287,152.392789 150.97129,195.701627 97.4143895,195.701627 Z" id="Combined-Shape" fill="#B9BABB"></path>
                <path d="M194.884666,98.4873342 C194.884666,99.1626565 173.735942,102.121901 174.630292,98.7837211 C176.785384,90.7397988 177.934481,82.2843886 177.934481,73.5605923 C177.934481,58.7202054 174.609141,44.6564933 168.662934,32.07393 C184.92733,49.4525554 194.884666,72.8071147 194.884666,98.4873342 Z" id="Combined-Shape-Copy" fill="#B8292B"></path>
                <path d="M0.962938954,98 L193.618285,98" id="Line" stroke="#000000" stroke-width="4" stroke-linecap="round"></path>
                <circle id="Oval-29" stroke="#000000" stroke-width="5" fill="#FFFFFF" cx="98.4358492" cy="97.4358492" r="32.2879893"></circle>
                <path d="M180.722491,148.835773 C189.662461,134.113407 194.810215,116.833181 194.810215,98.3506326 C194.810215,44.5552773 151.200463,0.945525292 97.4051073,0.945525292 C43.609752,0.945525292 0,44.5552773 0,98.3506326 C0,152.145988 43.609752,195.75574 97.4051073,195.75574 C126.751786,195.75574 153.067261,182.777614 170.925244,162.247652" id="Oval-7" stroke="#000000" stroke-width="4" stroke-linecap="round"></path>
                <path d="M17.196733,76.6981002 C18.9863507,69.7889844 21.6744671,63.1696008 25.1817479,56.98776 C25.9770763,55.585935 25.4854138,53.8047903 24.0835888,53.0094619 C22.6817639,52.2141335 20.9006192,52.7057961 20.1052907,54.107621 C16.3464774,60.7328065 13.465028,67.8282651 11.5466211,75.234593 C11.1424847,76.7948284 12.0796881,78.3872662 13.6399235,78.7914026 C15.2001588,79.1955389 16.7925967,78.2583355 17.196733,76.6981002 L17.196733,76.6981002 Z M36.0489399,42.0554483 C51.433296,25.2698411 73.0832626,15.536965 96.3035019,15.536965 C97.9152279,15.536965 99.2217899,14.230403 99.2217899,12.618677 C99.2217899,11.0069511 97.9152279,9.70038911 96.3035019,9.70038911 C71.4297814,9.70038911 48.2247847,20.1323386 31.746171,38.1118716 C30.6571823,39.3000484 30.7375902,41.1460558 31.9257671,42.2350444 C33.1139439,43.324033 34.9599513,43.2436251 36.0489399,42.0554483 L36.0489399,42.0554483 Z" id="Oval-29-Copy-6" fill="#FFFFFF" fill-rule="nonzero"></path>
                <circle id="Oval-29-Copy-5" stroke="#000000" stroke-width="2" fill="#FFFFFF" cx="98.2490272" cy="97.2490272" r="14.5914397"></circle>
            </g>
        </g>
    </g>
</svg>
