<?xml version="1.0" encoding="UTF-8"?>
<svg width="49px" height="14px" viewBox="0 0 49 14" version="1.1" xmlns="http://www.w3.org/2000/svg" xmlns:xlink="http://www.w3.org/1999/xlink">
    <!-- Generator: Sketch 49 (51002) - http://www.bohemiancoding.com/sketch -->
    <title>Combined Shape</title>
    <desc>Created with Sketch.</desc>
    <defs></defs>
    <g id="Design-V02" stroke="none" stroke-width="1" fill="none" fill-rule="evenodd">
        <g id="Home-Page---options-Copy" transform="translate(-262.000000, -13.000000)" fill="#00F2D6">
            <g id="Nav">
                <g id="Star-Rating" transform="translate(252.000000, 0.000000)">
                    <path d="M17.5,24.25 L13.0916106,26.5676275 L13.9335381,21.6588137 L10.3670761,18.1823725 L15.2958053,17.4661863 L17.5,13 L19.7041947,17.4661863 L24.6329239,18.1823725 L21.0664619,21.6588137 L21.9083894,26.5676275 L17.5,24.25 Z M34.5,24.25 L30.0916106,26.5676275 L30.9335381,21.6588137 L27.3670761,18.1823725 L32.2958053,17.4661863 L34.5,13 L36.7041947,17.4661863 L41.6329239,18.1823725 L38.0664619,21.6588137 L38.9083894,26.5676275 L34.5,24.25 Z M51.5,24.25 L47.0916106,26.5676275 L47.9335381,21.6588137 L44.3670761,18.1823725 L49.2958053,17.4661863 L51.5,13 L53.7041947,17.4661863 L58.6329239,18.1823725 L55.0664619,21.6588137 L55.9083894,26.5676275 L51.5,24.25 Z" id="Combined-Shape"></path>
                </g>
            </g>
        </g>
    </g>
</svg>
