<?xml version="1.0" encoding="UTF-8"?>
<svg width="202px" height="202px" viewBox="0 0 202 202" version="1.1" xmlns="http://www.w3.org/2000/svg" xmlns:xlink="http://www.w3.org/1999/xlink">
    <!-- Generator: Sketch 49 (51002) - http://www.bohemiancoding.com/sketch -->
    <title>Squirtle</title>
    <desc>Created with Sketch.</desc>
    <defs></defs>
    <g id="Page-1" stroke="none" stroke-width="1" fill="none" fill-rule="evenodd">
        <g id="pokemon" transform="translate(-249.000000, -698.000000)">
            <g id="Squirtle" transform="translate(251.000000, 700.000000)">
                <path d="M181.134788,148.856569 C190.074758,134.134202 195.222511,116.853976 195.222511,98.3714278 C195.222511,44.5760725 151.612759,0.966320509 97.8174041,0.966320509 C44.0220487,0.966320509 0.412296751,44.5760725 0.412296751,98.3714278 C0.412296751,152.166783 44.0220487,195.776535 97.8174041,195.776535 C127.164083,195.776535 153.479558,182.79841 171.337541,162.268447" id="Oval-7" fill="#74D3CD"></path>
                <path d="M170.198006,35.2183102 C186.26902,52.3903046 196.107963,75.4671793 196.107963,100.842062 C196.107963,153.893663 153.101143,196.900482 100.049542,196.900482 C61.6618774,196.900482 28.5334995,174.382797 13.1524315,141.83545 C30.6812863,160.565165 55.6241714,172.270118 83.3008948,172.270118 C136.352495,172.270118 179.359315,129.263299 179.359315,76.2116982 C179.359315,61.5477627 176.073513,47.6512675 170.198006,35.2183102 L170.198006,35.2183102 Z" id="Combined-Shape" fill="#02C2CD"></path>
                <path d="M183.046831,150.421247 C192.081386,135.543118 197.283603,118.080067 197.283603,99.4019734 C197.283603,45.0374635 153.21246,0.966320509 98.8479496,0.966320509 C89.5817917,0.966320509 80.6146715,2.24665296 72.1138457,4.64006108 M52.0021741,12.8065421 C44.0425391,17.1215823 36.7446999,22.5020459 30.2999406,28.7566485 M18.630434,42.3383411 C7.15947801,58.4347256 0.412296751,78.1304052 0.412296751,99.4019734 C0.412296751,153.766483 44.4834397,197.837626 98.8479496,197.837626 C128.505116,197.837626 155.099009,184.722192 173.145929,163.975023" id="Oval-7" stroke="#000000" stroke-width="4" stroke-linecap="round"></path>
                <path d="M34.6726368,106.859739 C34.6726368,106.859739 57.8323695,106.859739 57.83237,106.859738 C61.745968,101.311132 64.833664,90.4091916 64.833664,79.3143404 C64.833664,63.0839173 56.1809355,49.9265596 45.5072538,49.9265596 C34.8335722,49.9265596 26.1808437,63.0839173 26.1808437,79.3143404 C26.1808437,95.5447635 31.558518,102.071378 34.6726368,106.859739 Z" id="Oval-7-Copy-9" stroke="#000000" stroke-width="2" fill="#333333"></path>
                <path d="M26.8336929,88.0526664 C28.3602107,97.8797115 32.2190184,102.731556 34.6726368,106.504312 C34.6726368,106.504312 57.8323695,106.504312 57.83237,106.50431 C60.8801044,102.183305 63.4269626,94.6157198 64.404737,86.2387361 C64.6825234,83.8588287 56.1809355,95.1152777 45.5072538,95.1152777 C34.8335722,95.1152777 26.4227629,85.4072806 26.8336929,88.0526664 Z" id="Oval-7-Copy-12" stroke="#000000" stroke-width="2" fill="#B72B21"></path>
                <path d="M28.2119412,56.6728732 C28.2119412,66.5707729 43.674013,80.6298842 49.4964715,74.4431682 C55.3189301,68.2564521 46.3732305,56.1626616 42.4264781,53.0431951 C38.4797257,49.9237286 28.2119412,46.7749735 28.2119412,56.6728732 Z" id="Oval-7-Copy-10" stroke="#000000" stroke-width="2" fill="#FFFFFF" transform="translate(39.811560, 62.968920) scale(-1, 1) translate(-39.811560, -62.968920) "></path>
                <path d="M60.3373797,43.4844229 C45.7035377,46.0260472 39.0651171,60.535639 39.0651171,60.535639" id="Line" stroke="#000000" stroke-width="2" stroke-linecap="round" transform="translate(49.701248, 52.010031) scale(-1, 1) translate(-49.701248, -52.010031) "></path>
                <path d="M139.035252,106.859739 C139.035252,106.859739 162.194984,106.859739 162.194985,106.859738 C166.108583,101.311132 169.196279,90.4091916 169.196279,79.3143404 C169.196279,63.0839173 160.54355,49.9265596 149.869869,49.9265596 C139.196187,49.9265596 130.543459,63.0839173 130.543459,79.3143404 C130.543459,95.5447635 135.921133,102.071378 139.035252,106.859739 Z" id="Oval-7-Copy-9" stroke="#000000" stroke-width="2" fill="#333333" transform="translate(149.869869, 78.393149) scale(-1, 1) translate(-149.869869, -78.393149) "></path>
                <path d="M130.980208,88.0526664 C132.506725,97.8797115 136.365533,102.731556 138.819151,106.504312 C138.819151,106.504312 161.978884,106.504312 161.978885,106.50431 C165.026619,102.183305 167.573477,94.6157198 168.551252,86.2387361 C168.829038,83.8588287 160.32745,95.1152777 149.653768,95.1152777 C138.980087,95.1152777 130.569277,85.4072806 130.980208,88.0526664 Z" id="Oval-7-Copy-12" stroke="#000000" stroke-width="2" fill="#B72B21" transform="translate(149.761819, 96.206312) scale(-1, 1) translate(-149.761819, -96.206312) "></path>
                <path d="M143.965944,56.6728732 C143.965944,66.5707729 159.428016,80.6298842 165.250474,74.4431682 C171.072933,68.2564521 162.127233,56.1626616 158.180481,53.0431951 C154.233728,49.9237286 143.965944,46.7749735 143.965944,56.6728732 Z" id="Oval-7-Copy-10" stroke="#000000" stroke-width="2" fill="#FFFFFF"></path>
                <path d="M156.312006,43.4844229 C141.678164,46.0260472 135.039743,60.535639 135.039743,60.535639" id="Line" stroke="#000000" stroke-width="2" stroke-linecap="round"></path>
                <g id="Group-8" transform="translate(79.006365, 107.905790)" fill="#000000">
                    <path d="M11.5375451,7.32386153e-14 L11.5375451,0.0029206111 C11.5375451,2.22678456 9.92360698,4.85475228 7.92575856,5.79701591 C7.92575856,5.79701591 4.08075034,8.05916465 0.552793124,8.05916465 C-2.97516409,8.05916465 11.5375451,7.32386153e-14 11.5375451,7.32386153e-14 Z" id="Triangle-5" transform="translate(5.768773, 4.029582) scale(1, -1) translate(-5.768773, -4.029582) "></path>
                    <path d="M38.5529572,0 L38.5529572,0.0029206111 C38.5529572,2.22678456 36.9390191,4.85475228 34.9411706,5.79701591 C34.9411706,5.79701591 31.0961624,8.05916465 27.5682052,8.05916465 C24.040248,8.05916465 38.5529572,0 38.5529572,0 Z" id="Triangle-5-Copy" transform="translate(32.784185, 4.029582) scale(-1, -1) translate(-32.784185, -4.029582) "></path>
                </g>
                <path d="M97.8753452,166.746454 C134.759547,166.746454 164.6601,138.885528 164.6601,124.990794 C164.6601,124.990794 152.637829,129.687387 141.061367,130.254811 C131.298469,130.733342 123.096736,129.522006 113.484245,132.43207 C106.235799,134.626447 97.8753452,138.1964 97.8753452,138.1964 C97.8753452,138.1964 89.2427575,133.920184 83.8996132,132.43207 C73.0127606,129.399982 68.0795025,130.663327 56.9925544,130.254811 C46.4288277,129.865574 31.0905905,124.990794 31.0905905,124.990794 C31.0905905,138.885528 60.9911436,166.746454 97.8753452,166.746454 Z" id="Oval-14" stroke="#000000" stroke-width="2" fill="#DF817F"></path>
                <path d="M47.2323637,148.474508 C47.2323637,148.474508 47.936724,144.159563 50.1981133,138.344708 C52.4178504,132.636955 57.1363947,130.592523 57.1363947,130.592523 C46.5726679,130.203286 31.0905905,124.990794 31.0905905,124.990794 C31.0905905,131.257033 37.1718375,140.36375 47.2323637,148.474508 Z" id="Oval-14-Copy" stroke="#000000" stroke-width="2" fill="#77393C"></path>
                <path d="M155.185803,148.474508 C155.185803,148.474508 155.890163,144.159563 158.151552,138.344708 C160.37129,132.636955 165.089834,130.592523 165.089834,130.592523 C154.526107,130.203286 139.04403,124.990794 139.04403,124.990794 C139.04403,131.257033 145.125277,140.36375 155.185803,148.474508 Z" id="Oval-14-Copy-2" stroke="#000000" stroke-width="2" fill="#77393C" transform="translate(152.066932, 136.732651) scale(-1, 1) translate(-152.066932, -136.732651) "></path>
                <path d="M98.7902048,119.501636 C98.7902048,119.501636 108.328065,126.017969 118.580299,126.935942 C134.320422,128.345293 155.465347,125.877009 175.412381,139.118585" id="Line" stroke="#000000" stroke-width="2" stroke-linecap="round" transform="translate(137.101293, 129.310111) scale(1, -1) translate(-137.101293, -129.310111) "></path>
                <path d="M21.0271343,119.501636 C21.0271343,119.501636 30.5649943,126.017969 40.8172282,126.935942 C56.5573515,128.345293 77.702276,125.877009 97.6493105,139.118585" id="Line-Copy-2" stroke="#000000" stroke-width="2" stroke-linecap="round" transform="translate(59.338222, 129.310111) scale(-1, -1) translate(-59.338222, -129.310111) "></path>
            </g>
        </g>
    </g>
</svg>
